<svg xmlns="http://www.w3.org/2000/svg" fill="none" viewBox="0 0 166 32"><g clip-path="url(#a)"><path fill="#187CC0" d="M47.107 22.628h-15.3a5.14 5.14 0 0 0 .572 2.11c.337.646.807 1.2 1.373 1.616 1.194.94 2.636 1.436 4.11 1.413 2.444 0 4.302-.836 5.575-2.508l2.35 2.788c-2.104 2.364-4.844 3.546-8.22 3.544-2.739 0-5.068-.989-6.989-2.968-1.92-1.978-2.88-4.636-2.88-7.974 0-3.334.978-5.982 2.935-7.947 1.863-1.923 4.346-2.98 6.916-2.942 2.654 0 4.91.87 6.77 2.61 1.858 1.739 2.788 4.136 2.788 7.19v3.068Zm-15.3-3.506H43c0-1.779-.514-3.146-1.542-4.101-1.028-.955-2.294-1.433-3.797-1.435-1.469-.014-2.898.513-4.055 1.495-1.197.995-1.796 2.342-1.798 4.041ZM65.965 31.273H62.23v-2.829c-1.615 2.1-3.779 3.149-6.49 3.147-2.032 0-3.714-.624-5.046-1.872-1.332-1.249-1.998-2.915-2-4.998 0-2.084.71-3.644 2.13-4.68 1.42-1.037 3.34-1.555 5.76-1.555h5.32v-.796c0-2.816-1.443-4.223-4.327-4.223-1.812 0-3.696.717-5.652 2.152L50.09 12.83c2.277-2.008 5.127-3.093 8.06-3.07 2.3 0 4.177.63 5.632 1.892 1.456 1.26 2.183 3.246 2.183 5.955v13.666Zm-4.108-7.887v-1.793h-4.631c-2.959 0-4.439 1.009-4.44 3.027 0 1.036.367 1.828 1.1 2.37.734.542 1.755.818 3.065.818a5.269 5.269 0 0 0 3.43-1.196c.47-.364.852-.85 1.11-1.412a4.097 4.097 0 0 0 .366-1.814ZM74.335 31.273h-4.11V1.715h4.11v29.558ZM92.712 24.938c0 2.02-.673 3.634-2.018 4.84-1.345 1.208-3.07 1.812-5.174 1.813a12.835 12.835 0 0 1-4.42-.837 12.965 12.965 0 0 1-4.056-2.348l1.983-3.468c2.274 1.86 4.475 2.789 6.603 2.789.93 0 1.664-.232 2.203-.696.254-.205.46-.473.6-.78.14-.309.21-.649.206-.992 0-1.064-1.297-2.02-3.89-2.87a4.133 4.133 0 0 0-.438-.158c-4.065-1.196-6.097-3.188-6.097-5.978 0-1.964.704-3.538 2.11-4.72 1.407-1.183 3.236-1.774 5.485-1.773 2.278.01 4.502.758 6.385 2.15l-1.537 3.31c-1.528-1.12-3.33-1.715-5.172-1.708-.98 0-1.775.192-2.386.576a1.807 1.807 0 0 0-.689.723 2.011 2.011 0 0 0-.23 1.01c0 .693.32 1.197.957 1.514a8.596 8.596 0 0 0 1.852.677c.795.214 1.498.427 2.11.64.612.214 1.202.453 1.77.716.648.31 1.269.684 1.854 1.117 1.326.952 1.989 2.437 1.989 4.453Z"/><path fill="#20A94A" d="M114.762 5.857c1.785 1.62 2.678 4.117 2.678 7.49 0 3.374-.911 5.843-2.733 7.409-1.821 1.566-4.616 2.349-8.383 2.349h-4.549v8.166h-4.326V3.428h8.802c3.893 0 6.73.81 8.511 2.43Zm-3.064 11.494c.869-.997 1.304-2.457 1.304-4.382 0-1.924-.551-3.286-1.652-4.084-1.101-.796-2.826-1.194-5.174-1.194h-4.401v11.154h5.026c2.396 0 4.028-.498 4.897-1.494ZM124.594 31.273h-4.108V1.715h4.108v29.558ZM142.72 21.554V10.081h4.11v21.192h-4.11V27.41a7.783 7.783 0 0 1-2.717 3.057 6.962 6.962 0 0 1-3.773 1.125c-2.202 0-3.982-.73-5.339-2.19-1.357-1.46-2.036-3.572-2.037-6.333V10.081h4.11v11.636c0 3.904 1.492 5.856 4.476 5.856 1.37.02 2.696-.527 3.707-1.533 1.05-1.032 1.574-2.527 1.573-4.486ZM165.211 24.938c0 2.02-.673 3.634-2.018 4.84-1.345 1.208-3.07 1.812-5.174 1.813a12.837 12.837 0 0 1-4.421-.837 12.952 12.952 0 0 1-4.055-2.348l1.983-3.468c2.276 1.86 4.477 2.789 6.603 2.789.931 0 1.665-.232 2.203-.696.254-.205.459-.473.6-.78.14-.309.21-.649.206-.992 0-1.064-1.297-2.02-3.89-2.87a3.995 3.995 0 0 0-.44-.158c-4.064-1.196-6.096-3.188-6.096-5.978 0-1.964.703-3.538 2.11-4.72 1.406-1.183 3.234-1.774 5.482-1.773 2.279.01 4.502.758 6.385 2.15l-1.541 3.307c-1.527-1.12-3.329-1.714-5.172-1.708-.979 0-1.775.193-2.386.577a1.816 1.816 0 0 0-.689.723 2.02 2.02 0 0 0-.229 1.01c0 .692.318 1.197.954 1.514a8.664 8.664 0 0 0 1.854.677c.795.214 1.498.427 2.11.64a19.17 19.17 0 0 1 1.77.716c.648.31 1.269.684 1.855 1.117 1.33.953 1.996 2.439 1.996 4.455Z"/><path fill="#187CC0" d="M21.455 4.636C18.736 1.963 14.847.626 9.788.626H.1v20.911h4.763V5.411h4.775c7.402 0 11.102 3.507 11.102 10.52 0 3.45-.908 6.058-2.725 7.825-1.817 1.766-4.438 2.652-7.864 2.658H9.73v4.866h-.265c5.435 0 9.472-1.388 12.11-4.164 2.637-2.775 3.956-6.547 3.956-11.316 0-4.762-1.359-8.484-4.077-11.164Z"/><path fill="#20A94A" d="M4.864 26.407H.099v4.866h4.765v-4.866Z"/></g><defs><clipPath id="a"><path fill="#fff" d="M.1.633H165.21V31.59H.1z"/></clipPath></defs></svg>